<svg width="46" height="50" viewBox="0 0 46 50" fill="none" xmlns="http://www.w3.org/2000/svg">
<path fill-rule="evenodd" clip-rule="evenodd" d="M13.83 6.69491C11.825 6.69491 9.90209 7.4914 8.48431 8.90918C7.06653 10.327 6.27004 12.2499 6.27004 14.2549V35.844C6.29605 37.829 7.10183 39.7244 8.51367 41.1205C9.92906 42.5201 11.8393 43.305 13.8299 43.3049H19.8734C21.4842 43.3049 22.79 44.6107 22.79 46.2216C22.79 47.8324 21.4842 49.1382 19.8734 49.1382H13.8302C10.3038 49.1384 6.91949 47.7478 4.41204 45.2683C1.90455 42.7887 0.476155 39.4203 0.436885 35.8941L0.436523 35.8616L0.436704 14.2549C0.436704 10.7028 1.84778 7.29613 4.35952 4.78439C6.87126 2.27265 10.2779 0.861572 13.83 0.861572H32.17C35.7222 0.861572 39.1288 2.27265 41.6406 4.78439C44.1523 7.29613 45.5634 10.7028 45.5634 14.2549V21.8616C45.5634 23.4724 44.2575 24.7782 42.6467 24.7782C41.0359 24.7782 39.73 23.4724 39.73 21.8616V14.2549C39.73 12.2499 38.9335 10.327 37.5158 8.90918C36.098 7.4914 34.1751 6.69491 32.17 6.69491H13.83ZM10.9368 15.3516C10.9368 13.7408 12.2426 12.4349 13.8535 12.4349H30.0001C31.611 12.4349 32.9168 13.7408 32.9168 15.3516C32.9168 16.9624 31.611 18.2683 30.0001 18.2683H13.8535C12.2426 18.2683 10.9368 16.9624 10.9368 15.3516ZM10.9368 25.3849C10.9368 23.7741 12.2426 22.4682 13.8535 22.4682H18.5435C20.1543 22.4682 21.4601 23.7741 21.4601 25.3849C21.4601 26.9957 20.1543 28.3016 18.5435 28.3016H13.8535C12.2426 28.3016 10.9368 26.9957 10.9368 25.3849ZM35.5541 27.344C36.8428 27.344 37.8874 28.3887 37.8874 29.6773V34.8134H43.0189C44.3076 34.8134 45.3523 35.8581 45.3523 37.1467C45.3523 38.4354 44.3076 39.4801 43.0189 39.4801H37.8874V44.6107C37.8874 45.8993 36.8428 46.944 35.5541 46.944C34.2654 46.944 33.2208 45.8993 33.2208 44.6107V39.4801H28.0856C26.7969 39.4801 25.7523 38.4354 25.7523 37.1467C25.7523 35.8581 26.7969 34.8134 28.0856 34.8134H33.2208V29.6773C33.2208 28.3887 34.2654 27.344 35.5541 27.344Z" fill="#6F6F70"/>
</svg>
