<svg width="56" height="56" viewBox="0 0 56 56" fill="none" xmlns="http://www.w3.org/2000/svg">
<path fill-rule="evenodd" clip-rule="evenodd" d="M18.4111 9.68343C16.4061 9.68343 14.4831 10.4799 13.0654 11.8977C11.6476 13.3155 10.8511 15.2384 10.8511 17.2434V38.8325C10.8771 40.8175 11.6829 42.7129 13.0947 44.109C14.5101 45.5086 16.4204 46.2936 18.4109 46.2934H24.4544C26.0653 46.2934 27.3711 47.5993 27.3711 49.2101C27.3711 50.8209 26.0653 52.1268 24.4544 52.1268H18.4113C14.8849 52.1269 11.5005 50.7363 8.9931 48.2568C6.48561 45.7773 5.05721 42.4088 5.01794 38.8826L5.01758 38.8501L5.01776 17.2434C5.01776 13.6913 6.42884 10.2847 8.94058 7.77291C11.4523 5.26118 14.859 3.8501 18.4111 3.8501H36.7511C40.3032 3.8501 43.7099 5.26118 46.2216 7.77291C48.7333 10.2847 50.1444 13.6913 50.1444 17.2434V24.8501C50.1444 26.4609 48.8386 27.7668 47.2278 27.7668C45.6169 27.7668 44.3111 26.4609 44.3111 24.8501V17.2434C44.3111 15.2384 43.5146 13.3155 42.0968 11.8977C40.679 10.4799 38.7561 9.68343 36.7511 9.68343H18.4111ZM15.5179 18.3401C15.5179 16.7293 16.8237 15.4234 18.4345 15.4234H34.5812C36.192 15.4234 37.4979 16.7293 37.4979 18.3401C37.4979 19.9509 36.192 21.2568 34.5812 21.2568H18.4345C16.8237 21.2568 15.5179 19.9509 15.5179 18.3401ZM15.5179 28.3734C15.5179 26.7626 16.8237 25.4568 18.4345 25.4568H23.1245C24.7354 25.4568 26.0412 26.7626 26.0412 28.3734C26.0412 29.9842 24.7354 31.2901 23.1245 31.2901H18.4345C16.8237 31.2901 15.5179 29.9842 15.5179 28.3734ZM31.5317 48.1817C32.0484 48.679 32.7417 48.9538 33.4487 48.9538C33.4744 48.9538 33.5031 48.9508 33.5334 48.9478C33.5673 48.9443 33.6032 48.9407 33.639 48.9407C34.3052 48.9145 34.9306 48.6397 35.4064 48.1817C35.4339 48.15 35.4613 48.1205 35.4852 48.0947C35.5204 48.0568 35.5479 48.0272 35.556 48.0116L49.3418 34.7428C49.8584 34.2586 50.1439 33.5912 50.1439 32.8977C50.1439 32.2041 49.8584 31.5499 49.3418 31.0526C48.2813 30.0319 46.5547 30.0319 45.4942 31.0526L33.4487 42.6334L29.1118 38.5114C28.0513 37.4907 26.3247 37.4907 25.2643 38.5114C24.231 39.519 24.2174 41.1416 25.2099 42.1623L31.3278 47.9592C31.3958 48.0378 31.4638 48.1163 31.5317 48.1817Z" fill="#0CC665"/>
<path d="M13.0654 11.8977L13.1714 12.0038L13.0654 11.8977ZM10.8511 38.8325H10.7011L10.7011 38.8345L10.8511 38.8325ZM13.0947 44.109L13.2002 44.0023L13.0947 44.109ZM18.4109 46.2934V46.1434H18.4109L18.4109 46.2934ZM18.4113 52.1268V51.9768H18.4113L18.4113 52.1268ZM8.9931 48.2568L8.88763 48.3635L8.9931 48.2568ZM5.01794 38.8826L4.86795 38.8842L5.01794 38.8826ZM5.01758 38.8501H4.86757L4.86759 38.8518L5.01758 38.8501ZM5.01776 17.2434L5.16776 17.2434V17.2434H5.01776ZM8.94058 7.77291L8.83451 7.66685L8.94058 7.77291ZM46.2216 7.77291L46.3277 7.66685L46.2216 7.77291ZM42.0968 11.8977L42.2029 11.7916L42.0968 11.8977ZM31.5317 48.1817L31.4277 48.2898L31.4277 48.2898L31.5317 48.1817ZM33.5334 48.9478L33.5486 49.097H33.5486L33.5334 48.9478ZM33.639 48.9407V49.0908L33.6449 49.0906L33.639 48.9407ZM35.4064 48.1817L35.5109 48.2902L35.5198 48.2799L35.4064 48.1817ZM35.4852 48.0947L35.5951 48.1968L35.5951 48.1968L35.4852 48.0947ZM35.556 48.0116L35.452 47.9035L35.4342 47.9206L35.4229 47.9424L35.556 48.0116ZM49.3418 34.7428L49.2392 34.6333L49.2377 34.6347L49.3418 34.7428ZM49.3418 31.0526L49.2377 31.1607L49.3418 31.0526ZM45.4942 31.0526L45.5982 31.1607L45.5983 31.1607L45.4942 31.0526ZM33.4487 42.6334L33.3454 42.7421L33.4493 42.8409L33.5527 42.7415L33.4487 42.6334ZM29.1118 38.5114L29.0077 38.6195L29.0084 38.6201L29.1118 38.5114ZM25.2643 38.5114L25.1602 38.4033L25.1595 38.404L25.2643 38.5114ZM25.2099 42.1623L25.1022 42.267L25.1067 42.2712L25.2099 42.1623ZM31.3278 47.9592L31.4412 47.8611L31.4364 47.8555L31.431 47.8504L31.3278 47.9592ZM13.1714 12.0038C14.5611 10.6141 16.4458 9.83343 18.4111 9.83343V9.53343C16.3663 9.53343 14.4052 10.3457 12.9593 11.7916L13.1714 12.0038ZM11.0011 17.2434C11.0011 15.2782 11.7818 13.3934 13.1714 12.0038L12.9593 11.7916C11.5134 13.2375 10.7011 15.1986 10.7011 17.2434H11.0011ZM11.0011 38.8325V17.2434H10.7011V38.8325H11.0011ZM13.2002 44.0023C11.8164 42.6339 11.0266 40.7762 11.0011 38.8306L10.7011 38.8345C10.7276 40.8589 11.5494 42.7918 12.9893 44.2157L13.2002 44.0023ZM18.4109 46.1434C16.4599 46.1436 14.5875 45.3742 13.2002 44.0023L12.9893 44.2157C14.4327 45.6431 16.3809 46.4436 18.4109 46.4434L18.4109 46.1434ZM24.4544 46.1434H18.4109V46.4434H24.4544V46.1434ZM27.5211 49.2101C27.5211 47.5164 26.1481 46.1434 24.4544 46.1434V46.4434C25.9824 46.4434 27.2211 47.6821 27.2211 49.2101H27.5211ZM24.4544 52.2768C26.1481 52.2768 27.5211 50.9038 27.5211 49.2101H27.2211C27.2211 50.7381 25.9824 51.9768 24.4544 51.9768V52.2768ZM18.4113 52.2768H24.4544V51.9768H18.4113V52.2768ZM8.88763 48.3635C11.4232 50.8708 14.8454 52.2769 18.4113 52.2768L18.4113 51.9768C14.9244 51.9769 11.5779 50.6019 9.09857 48.1502L8.88763 48.3635ZM4.86795 38.8842C4.90766 42.45 6.35205 45.8561 8.88763 48.3635L9.09857 48.1502C6.61916 45.6984 5.20676 42.3676 5.16793 38.8809L4.86795 38.8842ZM4.86759 38.8518L4.86795 38.8842L5.16793 38.8809L5.16757 38.8484L4.86759 38.8518ZM4.86776 17.2434L4.86758 38.8501H5.16758L5.16776 17.2434L4.86776 17.2434ZM8.83451 7.66685C6.29464 10.2067 4.86776 13.6515 4.86776 17.2434H5.16776C5.16776 13.7311 6.56304 10.3626 9.04664 7.87898L8.83451 7.66685ZM18.4111 3.7001C14.8192 3.7001 11.3744 5.12698 8.83451 7.66685L9.04664 7.87898C11.5302 5.39537 14.8987 4.0001 18.4111 4.0001V3.7001ZM36.7511 3.7001H18.4111V4.0001H36.7511V3.7001ZM46.3277 7.66685C43.7878 5.12698 40.343 3.7001 36.7511 3.7001V4.0001C40.2634 4.0001 43.6319 5.39537 46.1155 7.87898L46.3277 7.66685ZM50.2944 17.2434C50.2944 13.6515 48.8675 10.2067 46.3277 7.66685L46.1155 7.87898C48.5992 10.3626 49.9944 13.7311 49.9944 17.2434H50.2944ZM50.2944 24.8501V17.2434H49.9944V24.8501H50.2944ZM47.2278 27.9168C48.9214 27.9168 50.2944 26.5438 50.2944 24.8501H49.9944C49.9944 26.3781 48.7557 27.6168 47.2278 27.6168V27.9168ZM44.1611 24.8501C44.1611 26.5438 45.5341 27.9168 47.2278 27.9168V27.6168C45.6998 27.6168 44.4611 26.3781 44.4611 24.8501H44.1611ZM44.1611 17.2434V24.8501H44.4611V17.2434H44.1611ZM41.9908 12.0038C43.3804 13.3934 44.1611 15.2782 44.1611 17.2434H44.4611C44.4611 15.1986 43.6488 13.2375 42.2029 11.7916L41.9908 12.0038ZM36.7511 9.83343C38.7163 9.83343 40.6011 10.6141 41.9908 12.0038L42.2029 11.7916C40.757 10.3457 38.7959 9.53343 36.7511 9.53343V9.83343ZM18.4111 9.83343H36.7511V9.53343H18.4111V9.83343ZM18.4345 15.2734C16.7409 15.2734 15.3679 16.6464 15.3679 18.3401H15.6679C15.6679 16.8121 16.9065 15.5734 18.4345 15.5734V15.2734ZM34.5812 15.2734H18.4345V15.5734H34.5812V15.2734ZM37.6479 18.3401C37.6479 16.6464 36.2749 15.2734 34.5812 15.2734V15.5734C36.1092 15.5734 37.3479 16.8121 37.3479 18.3401H37.6479ZM34.5812 21.4068C36.2749 21.4068 37.6479 20.0338 37.6479 18.3401H37.3479C37.3479 19.8681 36.1092 21.1068 34.5812 21.1068V21.4068ZM18.4345 21.4068H34.5812V21.1068H18.4345V21.4068ZM15.3679 18.3401C15.3679 20.0338 16.7409 21.4068 18.4345 21.4068V21.1068C16.9065 21.1068 15.6679 19.8681 15.6679 18.3401H15.3679ZM18.4345 25.3068C16.7409 25.3068 15.3679 26.6797 15.3679 28.3734H15.6679C15.6679 26.8454 16.9065 25.6068 18.4345 25.6068V25.3068ZM23.1245 25.3068H18.4345V25.6068H23.1245V25.3068ZM26.1912 28.3734C26.1912 26.6797 24.8182 25.3068 23.1245 25.3068V25.6068C24.6525 25.6068 25.8912 26.8454 25.8912 28.3734H26.1912ZM23.1245 31.4401C24.8182 31.4401 26.1912 30.0671 26.1912 28.3734H25.8912C25.8912 29.9014 24.6525 31.1401 23.1245 31.1401V31.4401ZM18.4345 31.4401H23.1245V31.1401H18.4345V31.4401ZM15.3679 28.3734C15.3679 30.0671 16.7409 31.4401 18.4345 31.4401V31.1401C16.9065 31.1401 15.6679 29.9014 15.6679 28.3734H15.3679ZM33.4487 48.8038C32.7802 48.8038 32.1242 48.5437 31.6358 48.0736L31.4277 48.2898C31.9726 48.8142 32.7033 49.1038 33.4487 49.1038V48.8038ZM33.5182 48.7985C33.4859 48.8018 33.4653 48.8038 33.4487 48.8038V49.1038C33.4835 49.1038 33.5203 49.0999 33.5486 49.097L33.5182 48.7985ZM33.639 48.7907C33.5943 48.7907 33.5509 48.7952 33.5182 48.7985L33.5486 49.097C33.5836 49.0934 33.612 49.0907 33.639 49.0907V48.7907ZM35.3024 48.0736C34.8523 48.5069 34.2615 48.7661 33.6332 48.7908L33.6449 49.0906C34.3489 49.0629 35.0089 48.7725 35.5105 48.2898L35.3024 48.0736ZM35.3752 47.9927C35.3516 48.0182 35.3224 48.0496 35.293 48.0835L35.5198 48.2799C35.5453 48.2504 35.5711 48.2227 35.5951 48.1968L35.3752 47.9927ZM35.4229 47.9424C35.4268 47.9348 35.4298 47.9315 35.4274 47.9345C35.4258 47.9366 35.4228 47.9404 35.4177 47.9462C35.4073 47.9582 35.3934 47.9731 35.3752 47.9927L35.5951 48.1968C35.6122 48.1784 35.6297 48.1596 35.6438 48.1433C35.6548 48.1308 35.6756 48.1068 35.6891 48.0807L35.4229 47.9424ZM49.2377 34.6347L35.452 47.9035L35.66 48.1197L49.4458 34.8508L49.2377 34.6347ZM49.9939 32.8977C49.9939 33.5498 49.7255 34.1775 49.2392 34.6333L49.4443 34.8522C49.9913 34.3396 50.2939 33.6326 50.2939 32.8977H49.9939ZM49.2377 31.1607C49.7263 31.6309 49.9939 32.2467 49.9939 32.8977H50.2939C50.2939 32.1616 49.9905 31.4688 49.4458 30.9445L49.2377 31.1607ZM45.5983 31.1607C46.6006 30.1959 48.2354 30.1959 49.2377 31.1607L49.4458 30.9445C48.3272 29.8679 46.5087 29.8679 45.3902 30.9445L45.5983 31.1607ZM33.5527 42.7415L45.5982 31.1607L45.3903 30.9445L33.3447 42.5253L33.5527 42.7415ZM29.0084 38.6201L33.3454 42.7421L33.552 42.5247L29.2151 38.4027L29.0084 38.6201ZM25.3683 38.6195C26.3706 37.6547 28.0054 37.6547 29.0077 38.6195L29.2158 38.4033C28.0973 37.3268 26.2788 37.3268 25.1602 38.4033L25.3683 38.6195ZM25.3174 42.0577C24.3826 41.0963 24.3951 39.5685 25.369 38.6188L25.1595 38.404C24.067 39.4695 24.0523 41.1869 25.1023 42.2669L25.3174 42.0577ZM31.431 47.8504L25.3131 42.0534L25.1067 42.2712L31.2246 48.0681L31.431 47.8504ZM31.6358 48.0736C31.5736 48.0138 31.5103 47.9408 31.4412 47.8611L31.2144 48.0574C31.2813 48.1347 31.3539 48.2187 31.4277 48.2898L31.6358 48.0736Z" fill="#0CC665"/>
</svg>
