<svg width="56" height="56" viewBox="0 0 56 56" fill="none" xmlns="http://www.w3.org/2000/svg">
<path fill-rule="evenodd" clip-rule="evenodd" d="M28.0002 8.75114C17.3678 8.75114 8.75016 17.3688 8.75016 28.0011C8.75016 38.6335 17.3678 47.2511 28.0002 47.2511C38.6325 47.2511 47.2502 38.6335 47.2502 28.0011C47.2502 17.3688 38.6325 8.75114 28.0002 8.75114ZM4.0835 28.0011C4.0835 14.7915 14.7905 4.08447 28.0002 4.08447C41.2098 4.08447 51.9168 14.7915 51.9168 28.0011C51.9168 41.2108 41.2098 51.9178 28.0002 51.9178C14.7905 51.9178 4.0835 41.2108 4.0835 28.0011ZM21.2501 21.2169C22.1613 20.3056 23.6387 20.3056 24.5499 21.2169L28.1168 24.7838L31.6837 21.2169C32.5949 20.3056 34.0723 20.3056 34.9835 21.2169C35.8948 22.1281 35.8948 23.6055 34.9835 24.5167L31.4166 28.0836L35.2501 31.917C36.1613 32.8283 36.1613 34.3056 35.2501 35.2169C34.3388 36.1281 32.8615 36.1281 31.9502 35.2169L28.1168 31.3834L24.2834 35.2169C23.3721 36.1281 21.8948 36.1281 20.9835 35.2169C20.0723 34.3056 20.0723 32.8283 20.9835 31.917L24.817 28.0836L21.2501 24.5167C20.3388 23.6055 20.3388 22.1281 21.2501 21.2169Z" fill="#FF2525"/>
</svg>
