<svg width="16" height="19" viewBox="0 0 16 19" fill="none" xmlns="http://www.w3.org/2000/svg">
<path fill-rule="evenodd" clip-rule="evenodd" d="M5.05863 5.06511C5.05863 3.44138 6.37493 2.12508 7.99866 2.12508C9.62239 2.12508 10.9387 3.44138 10.9387 5.06511C10.9387 6.68884 9.62239 8.00513 7.99866 8.00513C6.37493 8.00513 5.05863 6.68884 5.05863 5.06511ZM7.99866 0.041748C5.22434 0.041748 2.9753 2.29078 2.9753 5.06511C2.9753 7.83943 5.22434 10.0885 7.99866 10.0885C10.773 10.0885 13.022 7.83943 13.022 5.06511C13.022 2.29078 10.773 0.041748 7.99866 0.041748ZM2.37533 14.5002C2.37533 14.2288 2.45624 14.0693 2.59258 13.9336C2.75904 13.7678 3.06354 13.5886 3.57969 13.4371C4.62591 13.13 6.15434 13.0418 8.00033 13.0418C9.84632 13.0418 11.3747 13.13 12.421 13.4371C12.9371 13.5886 13.2416 13.7678 13.4081 13.9336C13.5444 14.0693 13.6253 14.2288 13.6253 14.5002C13.6253 14.7716 13.5444 14.931 13.4081 15.0668C13.2416 15.2325 12.9371 15.4117 12.421 15.5632C11.3747 15.8703 9.84632 15.9585 8.00033 15.9585C6.15434 15.9585 4.62591 15.8703 3.57969 15.5632C3.06354 15.4117 2.75904 15.2325 2.59258 15.0668C2.45624 14.931 2.37533 14.7716 2.37533 14.5002ZM8.00033 10.9585C6.16442 10.9585 4.3595 11.037 2.99287 11.4381C2.30259 11.6408 1.63078 11.9512 1.12253 12.4573C0.58417 12.9934 0.291992 13.6882 0.291992 14.5002C0.291992 15.3121 0.58417 16.0069 1.12253 16.543C1.63078 17.0491 2.30259 17.3595 2.99287 17.5622C4.3595 17.9634 6.16442 18.0418 8.00033 18.0418C9.83623 18.0418 11.6411 17.9634 13.0078 17.5622C13.6981 17.3595 14.3699 17.0491 14.8781 16.543C15.4165 16.0069 15.7087 15.3121 15.7087 14.5002C15.7087 13.6882 15.4165 12.9934 14.8781 12.4573C14.3699 11.9512 13.6981 11.6408 13.0078 11.4381C11.6411 11.037 9.83623 10.9585 8.00033 10.9585Z" fill="#4589FF" fill-opacity="0.64"/>
</svg>
