<svg width="26" height="28" viewBox="0 0 26 28" fill="none" xmlns="http://www.w3.org/2000/svg">
<path fill-rule="evenodd" clip-rule="evenodd" d="M7.76 3.54012C6.61427 3.54012 5.51546 3.99526 4.7053 4.80542C3.89515 5.61558 3.44 6.71438 3.44 7.86012V20.1967C3.45487 21.331 3.91531 22.4141 4.72208 23.2119C5.53087 24.0117 6.62245 24.4602 7.7599 24.4601H11.2133C12.1338 24.4601 12.88 25.2063 12.88 26.1268C12.88 27.0473 12.1338 27.7935 11.2133 27.7935H7.76011C5.74503 27.7935 3.81112 26.9989 2.37829 25.5821C0.945441 24.1652 0.129214 22.2403 0.106774 20.2253L0.106567 20.2068L0.106671 7.86012C0.106671 5.83033 0.913002 3.88367 2.34828 2.4484C3.78356 1.01312 5.73021 0.206787 7.76 0.206787H18.24C20.2698 0.206787 22.2164 1.01312 23.6517 2.4484C25.087 3.88368 25.8933 5.83033 25.8933 7.86012V12.2068C25.8933 13.1273 25.1471 13.8735 24.2267 13.8735C23.3062 13.8735 22.56 13.1273 22.56 12.2068V7.86012C22.56 6.71438 22.1049 5.61558 21.2947 4.80542C20.4845 3.99526 19.3857 3.54012 18.24 3.54012H7.76ZM6.10673 8.4868C6.10673 7.56632 6.85292 6.82013 7.7734 6.82013H17.0001C17.9205 6.82013 18.6667 7.56632 18.6667 8.4868C18.6667 9.40727 17.9205 10.1535 17.0001 10.1535H7.7734C6.85292 10.1535 6.10673 9.40727 6.10673 8.4868ZM6.10673 14.2201C6.10673 13.2996 6.85292 12.5534 7.7734 12.5534H10.4534C11.3739 12.5534 12.1201 13.2996 12.1201 14.2201C12.1201 15.1406 11.3739 15.8868 10.4534 15.8868H7.7734C6.85292 15.8868 6.10673 15.1406 6.10673 14.2201ZM20.1738 15.3396C20.9101 15.3396 21.5071 15.9366 21.5071 16.6729V19.6078H24.4394C25.1758 19.6078 25.7727 20.2048 25.7727 20.9412C25.7727 21.6775 25.1758 22.2745 24.4394 22.2745H21.5071V25.2063C21.5071 25.9426 20.9101 26.5396 20.1738 26.5396C19.4374 26.5396 18.8404 25.9426 18.8404 25.2063V22.2745H15.906C15.1697 22.2745 14.5727 21.6775 14.5727 20.9412C14.5727 20.2048 15.1697 19.6078 15.906 19.6078H18.8404V16.6729C18.8404 15.9366 19.4374 15.3396 20.1738 15.3396Z" fill="#4589FF"/>
</svg>
