<svg width="220" height="32" viewBox="0 0 220 32" fill="none" xmlns="http://www.w3.org/2000/svg">
<path d="M7.53762 19.5431C7.39274 20.0951 7.26152 20.6312 7.14641 21.1424C7.00122 21.7863 6.86757 22.3711 6.74668 22.8956C6.62762 23.4096 6.54378 23.8232 6.49701 24.1252C6.40103 24.6613 6.07967 24.9992 5.56665 25.1096C5.12501 25.2048 4.65057 25.1652 4.16124 24.9916C3.67921 24.8198 3.24061 24.5217 2.85698 24.1051C2.45483 23.6678 2.25072 23.118 2.25072 22.4705C2.25072 21.9438 2.37161 21.1108 2.62037 19.9242C2.86215 18.7673 3.21175 17.3949 3.66007 15.8451C4.10475 14.3066 4.64358 12.6121 5.262 10.8088C5.79355 9.2587 6.38918 7.6989 7.03584 6.16071C7.24786 5.6568 7.68524 5.31011 8.18976 5.24594C9.33212 5.10118 10.3232 5.13677 11.1625 5.3533C11.6679 5.48316 11.94 6.08377 11.7277 6.60137C11.1865 7.92213 10.6871 9.23953 10.2409 10.5223C9.88007 11.5608 9.5335 12.5884 9.20729 13.5883C9.17539 13.6866 9.26712 13.7784 9.35399 13.7349C9.78956 13.5159 10.22 13.2581 10.6397 12.9634C11.3286 12.4805 11.9561 11.9036 12.5047 11.2485C13.0514 10.5953 13.4997 9.85749 13.8369 9.05586C14.1704 8.26273 14.3399 7.39997 14.3399 6.49128C14.3399 5.32258 14.0431 4.45982 13.459 3.92701C12.8677 3.38782 12.0345 3.11443 10.9826 3.11443C9.86215 3.11443 8.83824 3.40486 7.93795 3.9772C7.01549 4.56322 6.21696 5.28518 5.56513 6.12301C4.90905 6.96479 4.39239 7.86495 4.02912 8.79858C3.66949 9.72399 3.48694 10.5354 3.48694 11.2099C3.48694 11.694 3.25306 12.0434 2.82843 12.1937C2.45635 12.326 2.046 12.3068 1.62501 12.135C1.21952 11.9699 0.844095 11.6451 0.508765 11.1694C0.171006 10.6911 0 10.0433 0 9.24409C0 8.54677 0.242081 7.72476 0.739608 6.73184C1.22499 5.76416 1.94212 4.82202 2.87065 3.93188C3.79797 3.04266 4.96889 2.27143 6.35091 1.63949C7.74143 1.00359 9.34883 0.681537 11.1278 0.681537C12.1411 0.681537 13.1571 0.811096 14.147 1.06685C15.1454 1.32504 16.0503 1.71764 16.836 2.23402C17.6315 2.75649 18.2849 3.41246 18.7775 4.1843C19.2793 4.96921 19.5336 5.89006 19.5336 6.92069C19.5336 8.031 19.3103 9.07228 18.8699 10.0147C18.4331 10.9486 17.8326 11.8017 17.0845 12.5498C16.344 13.2918 15.4659 13.9469 14.4744 14.4961C13.6571 14.9486 12.7878 15.3345 11.8857 15.6453C11.8283 15.6651 11.8076 15.6976 11.8103 15.763C11.8298 16.2542 11.862 16.7383 11.9066 17.206C11.9577 17.7422 12.0254 18.2656 12.1077 18.7616C12.1891 19.2488 12.2866 19.7238 12.3975 20.1733C12.4837 20.5208 12.5797 20.8596 12.683 21.1805C12.7486 21.3854 12.8178 21.5852 12.8886 21.7741C13.0296 22.1533 13.1851 22.5158 13.3506 22.8525C13.5128 23.1827 13.689 23.496 13.874 23.7843C14.0538 24.0647 14.2469 24.3289 14.4486 24.5698C14.6445 24.8036 14.852 25.0199 15.0655 25.2115C15.2736 25.3988 15.4926 25.5679 15.7171 25.7142C15.9351 25.8565 16.1645 25.9803 16.3974 26.0824C16.6274 26.1828 16.8658 26.2637 17.1054 26.3224C17.3445 26.3811 17.5926 26.4197 17.842 26.437C18.0917 26.454 18.3514 26.4501 18.6105 26.4249C18.8735 26.3996 19.1426 26.3519 19.4108 26.2835C19.6845 26.2132 19.964 26.1195 20.2416 26.0049C20.5262 25.8875 20.8138 25.7458 21.0975 25.584C21.2059 25.522 21.3156 25.4566 21.4246 25.3878C21.7788 25.1646 22.2305 25.2708 22.4686 25.6339C22.7064 25.997 22.6536 26.4979 22.3456 26.7919C22.1949 26.9361 22.0434 27.0766 21.8927 27.2119C21.5288 27.5379 21.1631 27.8402 20.8068 28.1106C20.4669 28.3678 20.1228 28.6059 19.7829 28.8179C19.6122 28.9247 19.4333 29.0299 19.252 29.1305C18.9027 29.3236 18.5488 29.4946 18.2007 29.6378C17.853 29.7801 17.5043 29.8978 17.1638 29.9875C16.8239 30.0776 16.4822 30.1423 16.1475 30.18C15.9093 30.2065 15.6706 30.2202 15.4376 30.2202C15.3435 30.2202 15.2496 30.2181 15.1554 30.2135C14.8323 30.1983 14.5103 30.1566 14.199 30.0891C14.0441 30.0563 13.8891 30.0158 13.7373 29.9693C13.5903 29.9249 13.4393 29.872 13.2886 29.8118C12.9983 29.6965 12.7112 29.5542 12.436 29.3893C12.166 29.2276 11.9009 29.0402 11.6491 28.8331C11.4455 28.6653 11.2457 28.4813 11.0559 28.2857C10.8274 28.0503 10.6051 27.7903 10.3946 27.5121C10.1875 27.2381 9.9882 26.9418 9.80292 26.6313C9.61794 26.3208 9.44268 25.9906 9.2814 25.6491C9.11981 25.3079 8.96763 24.9454 8.82882 24.571C8.69184 24.2018 8.56305 23.8083 8.44672 23.4023C8.33282 23.0033 8.22803 22.5806 8.13569 22.1457C8.04396 21.7114 7.96377 21.2607 7.89756 20.8061C7.83863 20.4044 7.78851 19.9871 7.74903 19.5635C7.73688 19.4346 7.57043 19.4184 7.53762 19.5431Z" fill="#4589FF"/>
<path d="M68.2891 3.30113C68.2891 5.12427 66.9348 6.60225 65.2651 6.60225C63.5948 6.60225 62.2404 5.12427 62.2404 3.30113C62.2404 1.47798 63.5948 0 65.2651 0C66.9348 0 68.2891 1.47798 68.2891 3.30113Z" fill="#4589FF"/>
<path d="M53.9581 12.3535C53.8634 12.9337 53.713 13.6028 53.5113 14.3421C53.3088 15.0796 53.0494 15.8575 52.7432 16.6466C52.41 17.4431 52.0652 18.1873 51.719 18.8588C51.376 19.5223 51.0353 20.0934 50.7066 20.556C50.3859 21.0067 50.0894 21.34 49.8239 21.5468C49.6241 21.7028 49.5135 21.7195 49.4752 21.7195C49.4576 21.7195 49.443 21.7165 49.4276 21.7089C49.3948 21.6928 49.283 21.6088 49.2344 21.2123C49.1891 20.8495 49.2134 20.3726 49.3061 19.7948C49.4005 19.1991 49.5506 18.5245 49.7526 17.7895C49.953 17.0557 50.2121 16.2781 50.5231 15.4776C50.8311 14.6842 51.168 13.9437 51.5246 13.2765C51.8806 12.6099 52.2274 12.0448 52.5552 11.5966C52.8735 11.1589 53.1712 10.8308 53.4394 10.6213C53.6401 10.465 53.7504 10.4479 53.7884 10.4479C53.8063 10.4479 53.8212 10.4513 53.8348 10.4583C53.8676 10.4744 53.9794 10.5583 54.0289 10.9552C54.0736 11.3186 54.0499 11.7891 53.9581 12.3535ZM40.4171 12.3535C40.3223 12.934 40.1723 13.6031 39.9706 14.3421C39.7668 15.0832 39.5074 15.8611 39.2024 16.6466C38.8686 17.4443 38.5239 18.1888 38.1782 18.8588C37.8347 19.5229 37.4942 20.0941 37.1652 20.556C36.8457 21.0064 36.549 21.3397 36.2829 21.5468C36.083 21.7028 35.9728 21.7195 35.9345 21.7195C35.9166 21.7195 35.9023 21.7165 35.8868 21.7089C35.854 21.6928 35.7422 21.6091 35.6936 21.2123C35.6484 20.851 35.6724 20.3741 35.765 19.7948C35.8592 19.2012 36.0095 18.5267 36.2118 17.7895C36.4123 17.0554 36.6717 16.2774 36.9827 15.4776C37.2913 14.6824 37.6278 13.9419 37.9835 13.2768C38.3407 12.6093 38.6873 12.0439 39.0138 11.5966C39.3337 11.158 39.6313 10.8296 39.8983 10.621C40.0991 10.465 40.2093 10.4479 40.2476 10.4479C40.2655 10.4479 40.2804 10.4513 40.2938 10.4583C40.3272 10.4744 40.439 10.5583 40.4882 10.9552C40.5328 11.3174 40.5088 11.7882 40.4171 12.3535ZM25.7665 12.3185C25.7079 12.907 25.5936 13.5803 25.4275 14.3196C25.261 15.0558 25.0323 15.8319 24.7483 16.6257C24.4649 17.4161 24.1633 18.1593 23.8511 18.8347C23.5449 19.4946 23.2354 20.0576 22.9311 20.5083C22.6343 20.9465 22.3552 21.2728 22.1018 21.479C21.9138 21.6319 21.8103 21.6484 21.7744 21.6484C21.758 21.6484 21.7443 21.645 21.7292 21.6374C21.6945 21.6207 21.5776 21.5346 21.5162 21.1317C21.4591 20.7634 21.454 20.2881 21.5001 19.7185C21.5472 19.1388 21.655 18.4738 21.8206 17.7405C21.9861 17.007 22.2145 16.2309 22.5 15.4344C22.7871 14.634 23.0893 13.8908 23.3979 13.2248C23.7026 12.5655 24.0124 11.9956 24.3195 11.5312C24.6147 11.0835 24.8932 10.7517 25.1465 10.5456C25.3339 10.3932 25.4381 10.3765 25.4743 10.3765C25.491 10.3765 25.505 10.3798 25.5183 10.3862C25.5539 10.4038 25.6769 10.4936 25.7519 10.9017C25.8187 11.2639 25.8239 11.7407 25.7665 12.3185ZM67.6137 16.6168C67.4667 16.3672 67.183 16.206 66.8908 16.206C66.6135 16.206 66.3647 16.3477 66.2083 16.5952C66.0288 16.8784 65.8077 17.2147 65.5507 17.5949C65.2682 18.0118 64.9639 18.4114 64.6456 18.7827C64.3291 19.1525 64.0208 19.4737 63.7289 19.7379C63.4269 20.0113 63.2316 20.0685 63.1214 20.0685C63.0439 20.0685 62.9 20.0685 62.8675 19.6531C62.8334 19.2179 62.8927 18.6519 63.043 17.9713C63.1967 17.2716 63.4194 16.4952 63.7052 15.6631C63.9962 14.8162 64.2884 14.0076 64.5733 13.2595C64.8691 12.4818 65.1236 11.8353 65.3505 11.2827C65.5765 10.7329 65.7184 10.3753 65.7724 10.2186C65.9535 9.76582 65.8873 9.31939 65.5811 8.92709C65.3001 8.56763 64.9241 8.31582 64.4639 8.17806C64.0147 8.04364 63.5248 8.03604 63.0139 8.15495C62.4671 8.28267 62.0334 8.62783 61.7254 9.1804C61.4539 9.66577 61.1006 10.4279 60.6754 11.4457C60.2483 12.466 59.8361 13.5991 59.4498 14.8128C59.2153 15.5491 58.9987 16.2975 58.8031 17.0511C58.4772 18.3044 57.8071 19.4183 56.8832 20.2425C56.5524 20.5374 56.2043 20.8157 55.8422 21.0742C55.6822 21.1885 55.5212 21.2947 55.3593 21.3917C55.3083 21.4224 55.2551 21.3549 55.2904 21.3044C55.5695 20.9033 55.8441 20.4693 56.112 20.0058C56.6642 19.0515 57.1669 17.9087 57.607 16.6092C58.0723 15.2334 58.3642 13.9784 58.4748 12.8787C58.5859 11.7657 58.5474 10.7943 58.359 9.99147C58.1646 9.16307 57.8245 8.51106 57.3476 8.05429C56.854 7.582 56.2435 7.34236 55.5343 7.34236C54.6981 7.34236 53.929 7.58412 53.2495 8.06066C52.7851 8.38606 52.3547 8.74979 51.965 9.14635C51.9325 9.17919 51.9058 9.17524 51.8824 9.13449C51.7958 8.98396 51.6792 8.84223 51.5325 8.70933C51.2026 8.41221 50.8059 8.21303 50.3524 8.11754C49.8974 8.02326 49.4351 8.05732 48.9844 8.21881C48.5024 8.39184 48.1427 8.74918 47.9155 9.28138C47.4797 10.3065 47.0192 11.5032 46.5472 12.838C46.0761 14.1706 45.6168 15.5637 45.1816 16.9784C45.1333 17.1356 45.0856 17.2926 45.0376 17.4495C44.6701 18.6562 43.98 19.7151 43.056 20.4897C42.8124 20.6941 42.5603 20.8893 42.3015 21.0742C42.1414 21.1885 41.9798 21.2947 41.8182 21.3917C41.7672 21.4224 41.7138 21.3552 41.7493 21.3044C42.0284 20.9033 42.3027 20.4696 42.5706 20.0062C43.1228 19.0525 43.6258 17.9099 44.0665 16.6092C44.5316 15.2331 44.8232 13.9781 44.9337 12.8787C45.0452 11.765 45.0066 10.7937 44.8183 9.99147C44.6242 9.16338 44.284 8.51167 43.8068 8.05429C43.313 7.5817 42.7027 7.34236 41.9938 7.34236C41.1567 7.34236 40.3879 7.58413 39.7085 8.06037C39.244 8.38607 38.8136 8.74978 38.4243 9.14604C38.3918 9.17888 38.3653 9.17493 38.3416 9.13417C38.2551 8.98394 38.1384 8.84223 37.9914 8.70964C37.6619 8.41222 37.2652 8.21303 36.8111 8.11754C36.3561 8.02326 35.8938 8.05763 35.444 8.21881C34.9622 8.39154 34.6023 8.74858 34.3742 9.28138C33.938 10.3084 33.4778 11.5047 33.0064 12.838C32.5639 14.0903 32.1335 15.3901 31.7253 16.7056C31.4176 17.6986 30.9562 18.4962 30.2679 19.2273C30.0902 19.4159 29.9171 19.5865 29.7494 19.7379C29.4478 20.0113 29.2528 20.0685 29.1419 20.0685C29.0645 20.0685 28.9205 20.0685 28.8883 19.6528C28.8543 19.2188 28.9132 18.6532 29.0639 17.9713C29.2173 17.2719 29.4402 16.4952 29.726 15.6631C30.0137 14.825 30.3059 14.0164 30.5938 13.2595C30.8848 12.4964 31.1463 11.8313 31.3714 11.2827C31.6016 10.7222 31.7398 10.3737 31.7924 10.2186C31.9743 9.76582 31.9081 9.31939 31.6019 8.92709C31.3201 8.56702 30.9377 8.3146 30.4641 8.17744C30.0018 8.04364 29.5131 8.03604 29.0144 8.15525C28.481 8.28328 28.0536 8.62845 27.746 9.1795C27.6846 9.28867 27.6205 9.4091 27.5522 9.5426C27.5282 9.59035 27.4629 9.57971 27.4525 9.52618C27.3939 9.22542 27.2995 8.94077 27.1704 8.6765C26.9766 8.28237 26.6901 7.9591 26.3184 7.7152C25.9411 7.46796 25.4621 7.34236 24.8947 7.34236C23.5574 7.34236 22.2006 8.01627 20.8629 9.34524C19.5495 10.6505 18.4609 12.7327 17.6265 15.5354C17.235 16.8869 17.0051 18.1362 16.9437 19.2486C16.8818 20.3744 16.965 21.3464 17.1907 22.1362C17.4233 22.9506 17.7948 23.5938 18.2954 24.0472C18.8117 24.5158 19.432 24.7533 20.1391 24.7533C20.6621 24.7533 21.1612 24.6548 21.6225 24.4602C22.0693 24.2716 22.484 24.0292 22.8542 23.74C23.1394 23.5177 23.4046 23.2662 23.6458 22.9895C23.8177 22.7921 24.1202 22.8721 24.191 23.1327C24.2702 23.425 24.3808 23.685 24.5217 23.9116C24.8714 24.4699 25.4245 24.7533 26.1656 24.7533C26.9866 24.7533 27.8164 24.4173 28.6314 23.7543C29.0113 23.4457 29.3825 23.109 29.7421 22.7471C29.8229 22.6656 29.9502 22.7529 29.9186 22.8675C29.7087 23.6299 29.5201 24.3364 29.3503 24.9991C29.0642 26.113 28.8312 27.0728 28.6581 27.851C28.4263 28.8956 28.3966 29.1794 28.3966 29.3101C28.3966 29.9503 28.5788 30.4962 28.9384 30.9326C29.2856 31.3525 29.6881 31.6536 30.1358 31.8279C30.4304 31.9422 30.7181 32 30.9899 32C31.1406 32 31.2891 31.9821 31.4315 31.9471C31.7526 31.8677 32.1596 31.6341 32.2784 30.9718L32.2802 30.959C32.3276 30.6102 32.4175 30.1376 32.5478 29.5543C32.6833 28.9492 32.8479 28.26 33.0371 27.5061C33.2236 26.7565 33.4371 25.9214 33.6892 24.9531C33.8056 24.5055 33.9304 24.0368 34.0631 23.5497C34.0905 23.4505 34.2129 23.4347 34.2603 23.5241C34.3192 23.6357 34.3851 23.7443 34.4574 23.8501C34.8662 24.4477 35.5178 24.7515 36.395 24.7533C36.5708 24.7619 36.7479 24.7664 36.9207 24.7664C38.2101 24.7664 39.4217 24.5246 40.5207 24.0484C41.5707 23.5938 42.5326 23.0378 43.3898 22.3947C43.4736 22.3317 43.5839 22.4193 43.5544 22.526C43.3081 23.4107 43.0864 24.2388 42.8911 24.9994C42.6034 26.1212 42.3704 27.0807 42.1988 27.851C41.9674 28.8972 41.9373 29.1806 41.9373 29.3101C41.9373 29.9503 42.1196 30.4959 42.4792 30.9326C42.8267 31.3525 43.2294 31.6539 43.6768 31.8279C43.9718 31.9419 44.2585 32 44.5307 32C44.6813 32 44.8298 31.9821 44.9729 31.9471C45.2939 31.8677 45.7007 31.6341 45.8197 30.9718L45.8215 30.9587C45.8686 30.609 45.9588 30.1364 46.0891 29.5543C46.2243 28.9492 46.3886 28.2603 46.5779 27.5061C46.7656 26.7532 46.9791 25.9181 47.2303 24.9531C47.3469 24.5049 47.4718 24.0359 47.6042 23.5494C47.6312 23.4502 47.7539 23.4344 47.8013 23.5238C47.8603 23.6354 47.9265 23.7443 47.9988 23.8501C48.407 24.4477 49.0588 24.7515 49.936 24.7533C50.1122 24.7619 50.2887 24.7664 50.4618 24.7664C51.7512 24.7664 52.9628 24.5246 54.0617 24.0484C55.2922 23.5156 56.4039 22.8453 57.3667 22.0553C57.5304 21.9208 57.6899 21.7849 57.8451 21.6477C57.9165 21.5845 58.0225 21.6411 58.021 21.7411C58.0204 21.7861 58.0201 21.8308 58.0201 21.8749C58.0201 22.7152 58.182 23.4003 58.5012 23.9116C58.8505 24.4699 59.4039 24.7533 60.1447 24.7533C60.9645 24.7533 61.7995 24.4179 62.6266 23.7558C63.413 23.1272 64.1553 22.384 64.8336 21.5465C65.5024 20.7211 66.0902 19.8985 66.581 19.1014C67.077 18.2946 67.4108 17.7433 67.6013 17.4151C67.7537 17.153 67.758 16.8623 67.6137 16.6168Z" fill="#4589FF"/>
<path d="M75.9446 8.45127C76.2863 6.53157 77.1026 5.09654 78.3935 4.14619C79.6844 3.17684 81.4404 2.74919 83.6615 2.86323L83.149 5.71427C81.877 5.65725 80.9468 5.86632 80.3583 6.3415C79.7698 6.79766 79.3712 7.58646 79.1624 8.70787L79.1054 8.96446H82.5794L82.0954 11.7585H78.6213L76.3717 24.6737H73.097L75.3751 11.7585H73.2394L73.7235 8.96446H75.8592L75.9446 8.45127Z" fill="#4589FF"/>
<path d="M90.8839 8.76489C92.9341 8.76489 94.5762 9.34459 95.8102 10.504C97.0441 11.6444 97.6611 13.222 97.6611 15.2368C97.6611 15.807 97.6041 16.4247 97.4902 17.0899C97.2055 18.6675 96.617 20.0455 95.7248 21.2239C94.8325 22.4024 93.7315 23.3052 92.4216 23.9324C91.1307 24.5597 89.7354 24.8733 88.2356 24.8733C86.8878 24.8733 85.6918 24.6167 84.6477 24.1035C83.6226 23.5903 82.8253 22.849 82.2558 21.8797C81.6862 20.8913 81.4015 19.7224 81.4015 18.3729C81.4015 17.8027 81.4584 17.1945 81.5723 16.5482C81.8571 14.9707 82.4456 13.5926 83.3378 12.4142C84.2301 11.2358 85.3311 10.333 86.641 9.70574C87.9699 9.07851 89.3842 8.76489 90.8839 8.76489ZM90.4567 11.5874C89.1659 11.5874 87.9889 12.0341 86.9258 12.9274C85.8627 13.8207 85.1793 15.1132 84.8755 16.8048C84.7996 17.242 84.7616 17.6791 84.7616 18.1163C84.7616 19.4088 85.1223 20.3876 85.8437 21.0529C86.5651 21.6991 87.4858 22.0222 88.6058 22.0222C89.9157 22.0222 91.0927 21.5851 92.1368 20.7108C93.1999 19.8174 93.8833 18.5155 94.1871 16.8048C94.263 16.4057 94.301 15.978 94.301 15.5219C94.301 14.2294 93.9403 13.2505 93.2189 12.5853C92.4975 11.92 91.5768 11.5874 90.4567 11.5874Z" fill="#4589FF"/>
<path d="M102.718 12.0436C103.439 11.0172 104.341 10.2094 105.423 9.6202C106.524 9.01198 107.72 8.70787 109.011 8.70787L108.384 12.2432H107.416C105.992 12.2432 104.787 12.5948 103.8 13.298C102.813 13.9823 102.186 15.1227 101.92 16.7193L101.892 16.6908L100.497 24.6737H97.2219L99.9841 8.96446H103.259L102.718 12.0436Z" fill="#4589FF"/>
<path d="M127.685 9.6202C127.476 10.8747 126.964 11.901 126.147 12.6993C125.331 13.4976 124.363 14.0298 123.243 14.2959C124.268 14.524 125.075 14.9992 125.663 15.7214C126.252 16.4437 126.546 17.3085 126.546 18.3159C126.546 18.601 126.517 18.9051 126.46 19.2282C126.176 20.9008 125.378 22.2313 124.068 23.2197C122.778 24.189 121.069 24.6737 118.943 24.6737H110.941L114.472 4.54535H122.331C124.116 4.54535 125.464 4.90648 126.375 5.62874C127.305 6.332 127.77 7.32036 127.77 8.59383C127.77 8.89794 127.742 9.24007 127.685 9.6202ZM124.268 10.1904C124.306 9.8863 124.325 9.66772 124.325 9.53467C124.325 8.7934 124.068 8.22319 123.556 7.82405C123.043 7.40589 122.246 7.19681 121.164 7.19681H117.263L116.209 13.2125H120.196C121.354 13.2125 122.275 12.9464 122.958 12.4142C123.66 11.882 124.097 11.1408 124.268 10.1904ZM123.186 18.8006C123.224 18.4964 123.243 18.2779 123.243 18.1448C123.243 17.3465 122.948 16.7193 122.36 16.2631C121.79 15.807 120.965 15.5789 119.883 15.5789H115.811L114.672 21.9937H118.772C120.006 21.9937 121.003 21.7181 121.762 21.1669C122.54 20.5967 123.015 19.8079 123.186 18.8006Z" fill="#4589FF"/>
<path d="M144.035 8.96446L141.272 24.6737H137.998L138.596 21.2525C137.969 22.4119 137.106 23.3147 136.004 23.9609C134.922 24.5882 133.736 24.9018 132.445 24.9018C130.888 24.9018 129.664 24.4646 128.772 23.5903C127.879 22.716 127.433 21.4615 127.433 19.8269C127.433 19.2947 127.49 18.715 127.604 18.0878L129.227 8.96446H132.473L130.907 17.7457C130.831 18.1258 130.793 18.5155 130.793 18.9146C130.793 19.979 131.088 20.7963 131.676 21.3665C132.284 21.9177 133.119 22.1933 134.182 22.1933C135.473 22.1933 136.574 21.7752 137.485 20.9388C138.396 20.1025 138.994 18.8861 139.279 17.2895V17.4035L140.76 8.96446H144.035Z" fill="#4589FF"/>
<path d="M150.318 8.76489C152.349 8.76489 153.896 9.24006 154.959 10.1904C156.041 11.1217 156.601 12.3762 156.639 13.9538H153.422C153.441 13.0985 153.156 12.4142 152.567 11.901C151.998 11.3688 151.153 11.1027 150.033 11.1027C149.179 11.1027 148.495 11.3023 147.983 11.7015C147.47 12.0816 147.214 12.6043 147.214 13.2695C147.214 13.7067 147.366 14.0773 147.669 14.3814C147.973 14.6665 148.343 14.8946 148.78 15.0657C149.236 15.2368 149.881 15.4458 150.716 15.6929C151.779 15.978 152.643 16.2726 153.308 16.5767C153.991 16.8618 154.57 17.2895 155.045 17.8597C155.519 18.4109 155.757 19.1332 155.757 20.0265C155.757 20.3876 155.719 20.7488 155.643 21.1099C155.434 22.2313 154.817 23.1436 153.792 23.8469C152.767 24.5312 151.409 24.8733 149.72 24.8733C147.688 24.8733 146.075 24.4171 144.879 23.5048C143.702 22.5924 143.104 21.319 143.085 19.6844H146.303C146.227 20.5397 146.511 21.2334 147.157 21.7656C147.821 22.2978 148.771 22.5639 150.004 22.5639C150.859 22.5639 151.514 22.3549 151.969 21.9367C152.444 21.5186 152.681 20.9864 152.681 20.3401C152.681 19.8459 152.52 19.4468 152.197 19.1427C151.874 18.8196 151.476 18.5725 151.001 18.4014C150.546 18.2113 149.9 17.9928 149.065 17.7457C148.021 17.4416 147.176 17.1565 146.53 16.8904C145.904 16.6243 145.363 16.2251 144.907 15.6929C144.471 15.1607 144.252 14.467 144.252 13.6117C144.252 13.3075 144.281 12.9749 144.338 12.6138C144.547 11.4544 145.173 10.523 146.217 9.81978C147.261 9.11652 148.628 8.76489 150.318 8.76489Z" fill="#4589FF"/>
<path d="M158.934 4.71641C158.934 4.10819 159.171 3.58549 159.646 3.14833C160.12 2.71117 160.709 2.4926 161.411 2.4926C161.962 2.4926 162.389 2.63514 162.693 2.92025C163.015 3.20535 163.177 3.57599 163.177 4.03215C163.177 4.67839 162.939 5.21059 162.465 5.62874C162.009 6.0469 161.43 6.25597 160.728 6.25597C160.158 6.25597 159.712 6.11342 159.389 5.82831C159.086 5.54321 158.934 5.17258 158.934 4.71641ZM161.895 8.96446L159.105 24.6737H155.858L158.621 8.96446H161.895Z" fill="#4589FF"/>
<path d="M172.63 8.70787C174.168 8.70787 175.383 9.14503 176.275 10.0193C177.167 10.8747 177.613 12.1101 177.613 13.7257C177.613 14.2959 177.556 14.8946 177.442 15.5219L175.848 24.6737H172.601L174.139 15.864C174.215 15.5029 174.253 15.1227 174.253 14.7236C174.253 13.6592 173.949 12.8514 173.342 12.3002C172.753 11.73 171.928 11.4449 170.864 11.4449C169.574 11.4449 168.473 11.863 167.561 12.6993C166.65 13.5166 166.052 14.7236 165.767 16.3202V16.2346L164.287 24.6737H161.012L163.774 8.96446H167.049L166.451 12.4427C167.058 11.2453 167.903 10.3235 168.985 9.67723C170.086 9.03099 171.301 8.70787 172.63 8.70787Z" fill="#4589FF"/>
<path d="M187.446 8.76489C188.794 8.76489 189.952 9.01197 190.92 9.50615C191.889 10.0003 192.62 10.6941 193.113 11.5874C193.626 12.4617 193.882 13.4596 193.882 14.581C193.882 14.9992 193.834 15.4934 193.74 16.0636C193.626 16.6148 193.502 17.0804 193.369 17.4606H181.296C181.258 17.7077 181.239 18.0403 181.239 18.4584C181.239 19.7319 181.571 20.6822 182.235 21.3095C182.919 21.9177 183.811 22.2218 184.912 22.2218C185.994 22.2218 186.953 21.9462 187.788 21.395C188.642 20.8438 189.24 20.112 189.582 19.1997H193.056C192.449 20.8913 191.395 22.2598 189.895 23.3052C188.396 24.3506 186.63 24.8733 184.599 24.8733C182.625 24.8733 181.049 24.3126 179.872 23.1912C178.695 22.0698 178.106 20.5302 178.106 18.5725C178.106 17.9452 178.163 17.3085 178.277 16.6623C178.562 15.0467 179.141 13.6497 180.014 12.4712C180.888 11.2738 181.96 10.3615 183.232 9.73425C184.523 9.08801 185.928 8.76489 187.446 8.76489ZM190.493 15.978C190.588 15.5979 190.636 15.1797 190.636 14.7236C190.636 13.6212 190.285 12.7849 189.582 12.2146C188.899 11.6444 188.035 11.3593 186.991 11.3593C185.719 11.3593 184.58 11.749 183.574 12.5283C182.587 13.3075 181.932 14.4575 181.609 15.978H190.493Z" fill="#4589FF"/>
<path d="M200.575 8.76489C202.606 8.76489 204.153 9.24006 205.217 10.1904C206.299 11.1217 206.859 12.3762 206.897 13.9538H203.679C203.698 13.0985 203.413 12.4142 202.825 11.901C202.255 11.3688 201.41 11.1027 200.29 11.1027C199.436 11.1027 198.753 11.3023 198.24 11.7015C197.727 12.0816 197.471 12.6043 197.471 13.2695C197.471 13.7067 197.623 14.0773 197.927 14.3814C198.231 14.6665 198.601 14.8946 199.037 15.0657C199.493 15.2368 200.138 15.4458 200.974 15.6929C202.037 15.978 202.901 16.2726 203.565 16.5767C204.248 16.8618 204.827 17.2895 205.302 17.8597C205.777 18.4109 206.014 19.1332 206.014 20.0265C206.014 20.3876 205.976 20.7488 205.9 21.1099C205.691 22.2313 205.074 23.1436 204.049 23.8469C203.024 24.5312 201.667 24.8733 199.977 24.8733C197.946 24.8733 196.332 24.4171 195.136 23.5048C193.959 22.5924 193.361 21.319 193.342 19.6844H196.56C196.484 20.5397 196.769 21.2334 197.414 21.7656C198.079 22.2978 199.028 22.5639 200.262 22.5639C201.116 22.5639 201.771 22.3549 202.227 21.9367C202.701 21.5186 202.939 20.9864 202.939 20.3401C202.939 19.8459 202.777 19.4468 202.454 19.1427C202.132 18.8196 201.733 18.5725 201.258 18.4014C200.803 18.2113 200.157 17.9928 199.322 17.7457C198.278 17.4416 197.433 17.1565 196.788 16.8904C196.161 16.6243 195.62 16.2251 195.165 15.6929C194.728 15.1607 194.51 14.467 194.51 13.6117C194.51 13.3075 194.538 12.9749 194.595 12.6138C194.804 11.4544 195.43 10.523 196.475 9.81978C197.519 9.11652 198.885 8.76489 200.575 8.76489Z" fill="#4589FF"/>
<path d="M213.32 8.76489C215.351 8.76489 216.899 9.24006 217.962 10.1904C219.044 11.1217 219.604 12.3762 219.642 13.9538H216.424C216.443 13.0985 216.158 12.4142 215.57 11.901C215 11.3688 214.155 11.1027 213.035 11.1027C212.181 11.1027 211.498 11.3023 210.985 11.7015C210.473 12.0816 210.216 12.6043 210.216 13.2695C210.216 13.7067 210.368 14.0773 210.672 14.3814C210.976 14.6665 211.346 14.8946 211.782 15.0657C212.238 15.2368 212.884 15.4458 213.719 15.6929C214.782 15.978 215.646 16.2726 216.31 16.5767C216.994 16.8618 217.573 17.2895 218.047 17.8597C218.522 18.4109 218.759 19.1332 218.759 20.0265C218.759 20.3876 218.721 20.7488 218.645 21.1099C218.436 22.2313 217.819 23.1436 216.794 23.8469C215.769 24.5312 214.412 24.8733 212.722 24.8733C210.691 24.8733 209.077 24.4171 207.881 23.5048C206.704 22.5924 206.106 21.319 206.087 19.6844H209.305C209.229 20.5397 209.514 21.2334 210.159 21.7656C210.824 22.2978 211.773 22.5639 213.007 22.5639C213.861 22.5639 214.516 22.3549 214.972 21.9367C215.446 21.5186 215.684 20.9864 215.684 20.3401C215.684 19.8459 215.522 19.4468 215.2 19.1427C214.877 18.8196 214.478 18.5725 214.004 18.4014C213.548 18.2113 212.902 17.9928 212.067 17.7457C211.023 17.4416 210.178 17.1565 209.533 16.8904C208.906 16.6243 208.365 16.2251 207.91 15.6929C207.473 15.1607 207.255 14.467 207.255 13.6117C207.255 13.3075 207.283 12.9749 207.34 12.6138C207.549 11.4544 208.176 10.523 209.22 9.81978C210.264 9.11652 211.631 8.76489 213.32 8.76489Z" fill="#4589FF"/>
</svg>
