<svg width="46" height="50" viewBox="0 0 46 50" fill="none" xmlns="http://www.w3.org/2000/svg">
<path fill-rule="evenodd" clip-rule="evenodd" d="M13.4091 6.68343C11.4041 6.68343 9.48119 7.47993 8.06341 8.8977C6.64564 10.3155 5.84914 12.2384 5.84914 14.2434V35.8325C5.87516 37.8175 6.68093 39.7129 8.09278 41.109C9.50816 42.5086 11.4184 43.2936 13.409 43.2934H19.4525C21.0633 43.2934 22.3691 44.5993 22.3691 46.2101C22.3691 47.8209 21.0633 49.1268 19.4525 49.1268H13.4093C9.88294 49.1269 6.4986 47.7363 3.99115 45.2568C1.48365 42.7772 0.0552565 39.4088 0.0159866 35.8826L0.015625 35.8501L0.0158058 14.2434C0.0158058 10.6913 1.42689 7.28465 3.93862 4.77291C6.45036 2.26118 9.857 0.850098 13.4091 0.850098H31.7491C35.3013 0.850098 38.7079 2.26118 41.2197 4.77291C43.7314 7.28465 45.1425 10.6913 45.1425 14.2434V21.8501C45.1425 23.4609 43.8366 24.7668 42.2258 24.7668C40.615 24.7668 39.3091 23.4609 39.3091 21.8501V14.2434C39.3091 12.2384 38.5126 10.3155 37.0949 8.8977C35.6771 7.47993 33.7542 6.68343 31.7491 6.68343H13.4091ZM10.5159 15.3401C10.5159 13.7293 11.8217 12.4234 13.4326 12.4234H29.5792C31.1901 12.4234 32.4959 13.7293 32.4959 15.3401C32.4959 16.9509 31.1901 18.2568 29.5792 18.2568H13.4326C11.8217 18.2568 10.5159 16.9509 10.5159 15.3401ZM10.5159 25.3734C10.5159 23.7626 11.8217 22.4568 13.4326 22.4568H18.1226C19.7334 22.4568 21.0392 23.7626 21.0392 25.3734C21.0392 26.9842 19.7334 28.2901 18.1226 28.2901H13.4326C11.8217 28.2901 10.5159 26.9842 10.5159 25.3734ZM24.6776 44.85C24.8278 45.5086 25.4171 45.9708 26.0873 45.9708H26.1104L29.7964 45.9246C30.7555 45.913 31.6568 45.4739 32.2461 44.7113L39.9948 34.8315C40.0091 34.8149 40.0231 34.7979 40.0367 34.7804C40.0502 34.7632 40.0633 34.7457 40.0759 34.7281L41.8252 32.4976C43.1194 30.8337 42.7496 28.6151 40.9586 27.2054L39.3525 25.9459C37.5614 24.5362 35.3198 24.7211 34.014 26.3735L32.2378 28.6382L32.2238 28.6559L32.2104 28.6732L24.4349 38.5871C23.8456 39.3382 23.6261 40.3088 23.8456 41.2448L24.6776 44.85ZM39.5489 30.7066L38.6479 31.8565L35.3892 29.302L36.2904 28.1529C36.7064 27.6214 37.3303 28.0258 37.573 28.2107L39.1791 29.4702C39.4218 29.6666 39.9649 30.1866 39.5489 30.7066ZM36.8662 34.1303L33.6065 31.575L26.7112 40.3666C26.665 40.4244 26.6419 40.5168 26.665 40.5977L27.2312 43.0705L29.7618 43.0358C29.8427 43.0358 29.9235 43.0012 29.9698 42.9318L36.8662 34.1303ZM36.1301 43.0802C35.3324 43.0802 34.6857 43.7269 34.6857 44.5246C34.6857 45.3223 35.3324 45.969 36.1301 45.969H43.4987C44.2964 45.969 44.9431 45.3223 44.9431 44.5246C44.9431 43.7269 44.2964 43.0802 43.4987 43.0802H36.1301Z" fill="#6F6F70"/>
</svg>
