<svg width="21" height="20" viewBox="0 0 21 20" fill="none" xmlns="http://www.w3.org/2000/svg">
<path d="M5.502 15.098C4.58733 15.098 3.74733 14.8833 2.982 14.454C2.21667 14.0247 1.61 13.432 1.162 12.676C0.714 11.9107 0.49 11.0473 0.49 10.086C0.49 9.134 0.714 8.28 1.162 7.524C1.61 6.75867 2.21667 6.16133 2.982 5.732C3.74733 5.30267 4.58733 5.088 5.502 5.088C6.426 5.088 7.266 5.30267 8.022 5.732C8.78733 6.16133 9.38933 6.75867 9.828 7.524C10.276 8.28 10.5 9.134 10.5 10.086C10.5 11.0473 10.276 11.9107 9.828 12.676C9.38933 13.432 8.78733 14.0247 8.022 14.454C7.25667 14.8833 6.41667 15.098 5.502 15.098ZM5.502 13.348C6.09 13.348 6.608 13.2173 7.056 12.956C7.504 12.6853 7.854 12.3027 8.106 11.808C8.358 11.3133 8.484 10.7393 8.484 10.086C8.484 9.43267 8.358 8.86333 8.106 8.378C7.854 7.88333 7.504 7.50533 7.056 7.244C6.608 6.98267 6.09 6.852 5.502 6.852C4.914 6.852 4.39133 6.98267 3.934 7.244C3.486 7.50533 3.136 7.88333 2.884 8.378C2.632 8.86333 2.506 9.43267 2.506 10.086C2.506 10.7393 2.632 11.3133 2.884 11.808C3.136 12.3027 3.486 12.6853 3.934 12.956C4.39133 13.2173 4.914 13.348 5.502 13.348ZM17.4742 15L13.9182 10.646V15H11.9582V5.228H13.9182V9.61L17.4742 5.228H19.8402L15.8082 10.072L19.9522 15H17.4742Z" fill="white"/>
</svg>
