<svg width="56" height="56" viewBox="0 0 56 56" fill="none" xmlns="http://www.w3.org/2000/svg">
<path d="M32.6667 7V14.4229C32.6667 18.0464 35.6887 20.9861 39.4235 20.9937C42.8847 21.0014 46.4274 21.0039 46.6667 20.9886" stroke="#4589FF" stroke-width="2.5" stroke-linecap="round" stroke-linejoin="round"/>
<path fill-rule="evenodd" clip-rule="evenodd" d="M6.41675 15.5336C6.41675 8.97703 12.2252 4.08325 18.5371 4.08325H34.5056C35.2755 4.08325 36.0142 4.38767 36.5605 4.93011L48.7217 17.004C49.2732 17.5516 49.5834 18.2966 49.5834 19.0738V40.1047C49.5834 46.4058 44.2925 51.9166 37.7127 51.9166H18.5371C11.7822 51.9166 6.41675 46.7736 6.41675 40.1047V15.5336ZM18.5371 9.91659C14.9636 9.91659 12.2501 12.6617 12.2501 15.5336V40.1047C12.2501 43.3952 14.8449 46.0833 18.5371 46.0833H37.7127C41.0231 46.0833 43.7501 43.2321 43.7501 40.1047V20.2881L33.3036 9.91659H18.5371ZM26.5776 19.6948C28.1885 19.6948 29.4943 21.0007 29.4943 22.6115V30.8852L31.1341 29.2385C32.2707 28.0971 34.1174 28.0932 35.2588 29.2298C36.4003 30.3664 36.4042 32.2132 35.2675 33.3546L28.6842 39.9658C28.2248 40.4454 27.6033 40.7684 26.9077 40.8467C26.7982 40.8592 26.6875 40.8656 26.5762 40.8655C26.3532 40.8655 26.1328 40.84 25.9189 40.7905C25.8943 40.7848 25.8698 40.7788 25.8455 40.7725C25.7534 40.7487 25.6631 40.7205 25.5748 40.6882C25.5444 40.677 25.5142 40.6654 25.4843 40.6533C25.1224 40.5072 24.79 40.2885 24.5094 40.0066L17.8874 33.3542C16.7509 32.2126 16.7552 30.3659 17.8968 29.2294C19.0384 28.093 20.8851 28.0972 22.0216 29.2389L23.661 30.8858V22.6115C23.661 21.0007 24.9668 19.6948 26.5776 19.6948Z" fill="#4589FF"/>
</svg>
