<svg width="24" height="24" viewBox="0 0 24 24" fill="none" xmlns="http://www.w3.org/2000/svg">
<path fill-rule="evenodd" clip-rule="evenodd" d="M3 5.75C3 5.05964 3.55964 4.5 4.25 4.5H19.75C20.4404 4.5 21 5.05964 21 5.75C21 6.44036 20.4404 7 19.75 7H4.25C3.55964 7 3 6.44036 3 5.75ZM3 11.75C3 11.0596 3.55964 10.5 4.25 10.5H11.75C12.4404 10.5 13 11.0596 13 11.75C13 12.4404 12.4404 13 11.75 13H4.25C3.55964 13 3 12.4404 3 11.75ZM4.25 16.5C3.55964 16.5 3 17.0596 3 17.75C3 18.4404 3.55964 19 4.25 19H19.75C20.4404 19 21 18.4404 21 17.75C21 17.0596 20.4404 16.5 19.75 16.5H4.25Z" fill="#010103" fill-opacity="0.8"/>
</svg>
