<svg width="44" height="48" viewBox="0 0 44 48" fill="none" xmlns="http://www.w3.org/2000/svg">
<path fill-rule="evenodd" clip-rule="evenodd" d="M0.417969 11.5338C0.417969 4.97728 6.22644 0.0834961 12.5383 0.0834961H28.5068C29.2767 0.0834961 30.0154 0.38791 30.5617 0.930353L42.7229 13.0042C43.2745 13.5518 43.5846 14.2969 43.5846 15.074V36.1049C43.5846 42.406 38.2937 47.9168 31.7139 47.9168H12.5383C5.7834 47.9168 0.417969 42.7738 0.417969 36.1049V11.5338ZM12.5383 5.91683C8.96478 5.91683 6.2513 8.66191 6.2513 11.5338V36.1049C6.2513 39.3954 8.84609 42.0835 12.5383 42.0835H31.7139C35.0243 42.0835 37.7513 39.2323 37.7513 36.1049V16.2883L27.3048 5.91683H12.5383ZM20.5789 36.866C18.968 36.866 17.6622 35.5601 17.6622 33.9493L17.6622 25.6756L16.0224 27.3223C14.8858 28.4637 13.0391 28.4676 11.8977 27.331C10.7562 26.1944 10.7523 24.3476 11.889 23.2062L18.4723 16.595C18.9319 16.1152 19.5538 15.7921 20.2498 15.714C20.359 15.7016 20.4693 15.6952 20.5803 15.6952C20.8085 15.6953 21.034 15.722 21.2525 15.7738C21.3813 15.8043 21.5067 15.8432 21.6283 15.8901C22.0072 16.0361 22.3551 16.2609 22.6471 16.5542L29.2691 23.2066C30.4056 24.3482 30.4013 26.1949 29.2597 27.3313C28.1181 28.4678 26.2714 28.4635 25.1349 27.3219L23.4955 25.675L23.4955 33.9493C23.4955 35.5601 22.1897 36.866 20.5789 36.866Z" fill="#6F6F70"/>
</svg>
