<svg width="20" height="20" viewBox="0 0 20 20" fill="none" xmlns="http://www.w3.org/2000/svg">
<path fill-rule="evenodd" clip-rule="evenodd" d="M10 3.33333C6.31863 3.33333 3.33333 6.31863 3.33333 10C3.33333 13.6814 6.31863 16.6667 10 16.6667C13.6821 16.6667 16.6667 13.6814 16.6667 10C16.6667 6.31856 13.6821 3.33333 10 3.33333ZM1.25 10C1.25 5.16804 5.16804 1.25 10 1.25C14.8329 1.25 18.75 5.16811 18.75 10C18.75 14.8319 14.8329 18.75 10 18.75C5.16804 18.75 1.25 14.832 1.25 10ZM9.9959 5.79508C10.5712 5.79508 11.0376 6.26145 11.0376 6.83675V10.5193C11.0376 11.0945 10.5712 11.5609 9.9959 11.5609C9.42061 11.5609 8.95424 11.0945 8.95424 10.5193V6.83675C8.95424 6.26145 9.42061 5.79508 9.9959 5.79508ZM9.99591 12.1216C9.42061 12.1216 8.95424 12.588 8.95424 13.1632C8.95424 13.7385 9.42061 14.2049 9.99591 14.2049H10.0042C10.5795 14.2049 11.0459 13.7385 11.0459 13.1632C11.0459 12.588 10.5795 12.1216 10.0042 12.1216H9.99591Z" fill="#0CC665"/>
</svg>
